<?xml version="1.0" ?><svg enable-background="new 0 0 52 52" id="Layer_1" version="1.1" viewBox="0 0 52 52" xml:space="preserve" xmlns="http://www.w3.org/2000/svg" xmlns:xlink="http://www.w3.org/1999/xlink"><g><g><path d="M49.0002747,40.5021362h-2.0203857c-0.1478882-1.8270874-1.399231-3.9555664-5.6401367-5.4321289    c-2.1400146-0.75-4.5400391-0.75-6.6800537,0c-4.25,1.4850464-5.5023193,3.6156616-5.6445923,5.4321289h-6.0352173    c-0.1478882-1.8270874-1.399231-3.9555664-5.6401367-5.4321289c-2.1400146-0.75-4.5400391-0.75-6.6800537,0    c-4.25,1.4850464-5.5023193,3.6156616-5.6445923,5.4321289H3.0002747c-0.5527344,0-1,0.4477539-1,1s0.4472656,1,1,1h2.2653809    c0.1940918,0.6265869,0.4938965,1.2692871,0.9240723,1.9179077C7.8797302,46.9800415,10.7997131,48.5,13.9997253,48.5    s6.1199951-1.5199585,7.8099976-4.0799561c0.4194946-0.6464844,0.7219238-1.2874146,0.9206543-1.9179077h6.5352783    c0.1940918,0.6265869,0.4938965,1.2692871,0.9240723,1.9179077C31.8797302,46.9800415,34.7997131,48.5,37.9997253,48.5    s6.1199951-1.5199585,7.8099976-4.0799561c0.4194946-0.6464844,0.7219238-1.2874146,0.9206543-1.9179077h2.2698975    c0.5527344,0,1-0.4477539,1-1S49.553009,40.5021362,49.0002747,40.5021362z"/></g><g><path d="M25.9997253,33.5c13.6799927,0,24-4.0799561,24-9.5c0-2.6436157-2.5244751-5.0505371-7.0081177-6.7907104    c0.0042725,0.0994873,0.0076904,0.1992798,0.0076904,0.2908936v6.9716797l-1.8037109,0.7827148    c-4.9912109,2.1542969-10.0761719,3.2456055-15.1162109,3.2456055c-5.0439453,0-10.125-1.0917969-15.1035156-3.2441406    l-1.8183594-0.7753906l0.0100098-7.3322144C4.5843201,18.8916016,1.9997253,21.3208008,1.9997253,24    C1.9997253,29.4200439,12.3197327,33.5,25.9997253,33.5z" fill="#3A92CC"/></g><g><path d="M11.1596985,23.1600342l0.6100464,0.2600098C16.5097351,25.4700317,21.3297424,26.5,26.0797424,26.5    c4.7600098,0,9.5700073-1.0299683,14.3200073-3.0799561l0.5999756-0.2600098V17.5c0-0.0899658,0-0.1900024-0.0100098-0.289978    c0-0.5899658-0.0599976-1.2000122-0.1599731-1.8699951C39.679718,8.4800415,33.4497375,3.5,25.9997253,3.5    S12.3197327,8.4800415,11.1697083,15.3400269l-0.000061,0.0465698c-0.1022949,0.6600952-0.1557617,1.2572632-0.1586304,1.8206177    c-0.0088053,0.0986328-0.0107422,0.1967773-0.0107422,0.2949219c0,0.194458,0.0700684,0.3654175,0.1660156,0.5189819    L11.1596985,23.1600342z" fill="#3A92CC"/></g></g></svg>